<?xml version="1.0" encoding="UTF-8" standalone="no"?>
<!-- Created with Inkscape (http://www.inkscape.org/) -->

<svg
   xmlns:dc="http://purl.org/dc/elements/1.1/"
   xmlns:cc="http://creativecommons.org/ns#"
   xmlns:rdf="http://www.w3.org/1999/02/22-rdf-syntax-ns#"
   xmlns:svg="http://www.w3.org/2000/svg"
   xmlns="http://www.w3.org/2000/svg"
   xmlns:sodipodi="http://sodipodi.sourceforge.net/DTD/sodipodi-0.dtd"
   xmlns:inkscape="http://www.inkscape.org/namespaces/inkscape"
   width="11.692913in"
   height="8.2677164in"
   viewBox="0 0 1052.3622 744.09449"
   id="svg2"
   version="1.1"
   inkscape:version="0.91 r13725"
   sodipodi:docname="FirstDraft.svg"
   inkscape:export-filename="C:\Users\ryne\WD\2 Pocket Wallet\Wallet 2 pocket Draft.png"
   inkscape:export-xdpi="270.26999"
   inkscape:export-ydpi="270.26999">
  <defs
     id="defs4">
    <marker
       inkscape:stockid="Arrow1Lend"
       orient="auto"
       refY="0.0"
       refX="0.0"
       id="Arrow1Lend"
       style="overflow:visible;"
       inkscape:isstock="true">
      <path
         id="path4333"
         d="M 0.0,0.0 L 5.0,-5.0 L -12.5,0.0 L 5.0,5.0 L 0.0,0.0 z "
         style="fill-rule:evenodd;stroke:#000000;stroke-width:1pt;stroke-opacity:1;fill:#000000;fill-opacity:1"
         transform="scale(0.8) rotate(180) translate(12.5,0)" />
    </marker>
  </defs>
  <sodipodi:namedview
     id="base"
     pagecolor="#ffffff"
     bordercolor="#666666"
     borderopacity="1.0"
     inkscape:pageopacity="0.0"
     inkscape:pageshadow="2"
     inkscape:zoom="1.4"
     inkscape:cx="597.72792"
     inkscape:cy="293.38833"
     inkscape:document-units="px"
     inkscape:current-layer="layer1"
     showgrid="false"
     inkscape:window-width="2560"
     inkscape:window-height="1578"
     inkscape:window-x="-8"
     inkscape:window-y="-8"
     inkscape:window-maximized="1"
     units="in" />
  <metadata
     id="metadata7">
    <rdf:RDF>
      <cc:Work
         rdf:about="">
        <dc:format>image/svg+xml</dc:format>
        <dc:type
           rdf:resource="http://purl.org/dc/dcmitype/StillImage" />
        <dc:title></dc:title>
      </cc:Work>
    </rdf:RDF>
  </metadata>
  <g
     inkscape:label="Layer 1"
     inkscape:groupmode="layer"
     id="layer1"
     transform="translate(0,-308.26769)">
    <path
       style="fill:none;fill-rule:evenodd;stroke:#000000;stroke-width:1.03965485px;stroke-linecap:butt;stroke-linejoin:miter;stroke-opacity:1"
       d="m 90,624.86218 c 3e-6,-12.00355 10.49645,-22.47482 22.5,-22.48741 l 180,-0.005 c 12.00355,0.007 22.48535,10.48911 22.48535,22.49266 l 0.0147,3e-5 0,89.99947 c 0,6.03042 3.2141,11.7475 8.48629,14.94342 5.27219,3.19592 11.12604,3.17419 16.71371,0.53374 l 190.56877,-112.4061 c 0,0 8.90579,-5.66229 13.61206,-8.029 4.40146,-2.21343 8.91223,-4.28671 13.61912,-5.74182 3.65434,-1.12971 7.41972,-2.28717 11.24469,-2.28715 l 11.25177,5e-5 11.25177,5e-5 c 3.82728,2e-5 7.59548,1.15584 11.25177,2.28705 4.7164,1.4592 9.23429,3.54231 13.64427,5.76173 4.71679,2.37383 13.64427,8.04873 13.64427,8.04873 l 191.01975,112.68223 c 3.22469,1.91849 7.42191,4.40332 10.25541,7.3041 2.52614,2.72143 5.22553,6.00697 5.4363,9.82036 l 0,192.08304 c 0,11.59648 -10.16327,22.50272 -22.50001,22.50181 L 616.5,962.36217 c -11.07651,0 -14.39778,-7.42613 -16.52553,-11.2435 -1.9412,-3.36224 -4.7521,-6.22236 -8.23088,-8.23082 -6.95756,-4.01692 -15.52962,-4.01691 -22.48718,1e-5 -3.47878,2.00846 -6.28978,4.86858 -8.23184,8.23082 -2.30768,3.7676 -3.70126,11.08317 -16.52457,11.24349 l -193.5,0 c -9.61827,-0.0631 -15.05202,-8.82396 -16.67159,-11.03531 -2.28387,-3.11838 -4.87875,-6.10715 -8.29309,-8.07842 -6.82868,-3.94254 -15.6688,-3.62494 -22.07064,0 -3.23264,1.83043 -6.05032,4.80771 -8.15699,7.97279 -1.63583,2.45768 -7.23499,11.05204 -16.80769,11.14094 l -166.5,0 c -12.00356,0 -22.500002,-10.49644 -22.5,-22.49998 z"
       id="path4181"
       inkscape:connector-curvature="0"
       sodipodi:nodetypes="ccccccsccaascsaaccccccccsscccsssscccc" />
  </g>
</svg>
