<?xml version="1.0" encoding="UTF-8" standalone="no"?>
<!-- Created with Inkscape (http://www.inkscape.org/) -->

<svg
   xmlns:dc="http://purl.org/dc/elements/1.1/"
   xmlns:cc="http://creativecommons.org/ns#"
   xmlns:rdf="http://www.w3.org/1999/02/22-rdf-syntax-ns#"
   xmlns:svg="http://www.w3.org/2000/svg"
   xmlns="http://www.w3.org/2000/svg"
   xmlns:sodipodi="http://sodipodi.sourceforge.net/DTD/sodipodi-0.dtd"
   xmlns:inkscape="http://www.inkscape.org/namespaces/inkscape"
   width="11.692913in"
   height="8.2677164in"
   viewBox="0 0 1052.3622 744.09449"
   id="svg2"
   version="1.1"
   inkscape:version="0.91 r13725"
   sodipodi:docname="FirstDraft3, maybe final.svg"
   inkscape:export-filename="C:\Users\ryne\WD\2 Pocket Wallet\Wallet 2 pocket Draft.png"
   inkscape:export-xdpi="270.26999"
   inkscape:export-ydpi="270.26999">
  <defs
     id="defs4">
    <marker
       inkscape:stockid="Arrow1Lend"
       orient="auto"
       refY="0.0"
       refX="0.0"
       id="Arrow1Lend"
       style="overflow:visible;"
       inkscape:isstock="true">
      <path
         id="path4333"
         d="M 0.0,0.0 L 5.0,-5.0 L -12.5,0.0 L 5.0,5.0 L 0.0,0.0 z "
         style="fill-rule:evenodd;stroke:#000000;stroke-width:1pt;stroke-opacity:1;fill:#000000;fill-opacity:1"
         transform="scale(0.8) rotate(180) translate(12.5,0)" />
    </marker>
  </defs>
  <sodipodi:namedview
     id="base"
     pagecolor="#ffffff"
     bordercolor="#666666"
     borderopacity="1.0"
     inkscape:pageopacity="0.0"
     inkscape:pageshadow="2"
     inkscape:zoom="1.979899"
     inkscape:cx="463.42781"
     inkscape:cy="109.91386"
     inkscape:document-units="px"
     inkscape:current-layer="layer1"
     showgrid="false"
     inkscape:window-width="2560"
     inkscape:window-height="1578"
     inkscape:window-x="-8"
     inkscape:window-y="-8"
     inkscape:window-maximized="1"
     units="in" />
  <metadata
     id="metadata7">
    <rdf:RDF>
      <cc:Work
         rdf:about="">
        <dc:format>image/svg+xml</dc:format>
        <dc:type
           rdf:resource="http://purl.org/dc/dcmitype/StillImage" />
        <dc:title></dc:title>
      </cc:Work>
    </rdf:RDF>
  </metadata>
  <g
     inkscape:label="Layer 1"
     inkscape:groupmode="layer"
     id="layer1"
     transform="translate(0,-308.26769)">
    <path
       style="color:#000000;clip-rule:nonzero;display:inline;overflow:visible;visibility:visible;opacity:1;isolation:auto;mix-blend-mode:normal;color-interpolation:sRGB;color-interpolation-filters:linearRGB;solid-color:#000000;solid-opacity:1;fill:none;fill-opacity:1;fill-rule:evenodd;stroke:#000000;stroke-width:0.90707099;stroke-linecap:butt;stroke-linejoin:miter;stroke-miterlimit:4;stroke-dasharray:none;stroke-dashoffset:10;stroke-opacity:1;color-rendering:auto;image-rendering:auto;shape-rendering:auto;text-rendering:auto;enable-background:accumulate"
       d="m 580.05,939.86223 c -0.004,12.1759 -9.87409,21.77994 -22.05,21.77994 l -14.51015,-0.0376 -177.5,0 -14.08985,0.0376 c -12.17586,0 -22.04638,-9.60404 -22.05,-21.77994 -0.004,12.1759 -9.87409,21.77994 -22.05,21.77994 l -13.81015,-0.0376 -182.5,0 c -12.003563,0 -22.500005,-10.49644 -22.500003,-22.49998 l 0,-315.00001 c 3e-6,-12.00355 10.49645,-22.47482 22.500003,-22.48741 l 180,-0.005 c 12.00355,0.007 22.48535,10.48911 22.48535,22.49266 l 0.0147,3e-5 0,89.99947 c 0,6.03042 3.2141,11.7475 8.48629,14.94342 2.63609,1.59796 5.41761,2.39151 8.23855,2.45551 2.82094,0.064 5.68132,-0.60155 8.47516,-1.92177 l 190.56877,-112.4061 c 0,0 8.90579,-5.66229 13.61206,-8.029 4.40146,-2.21343 8.91223,-4.28671 13.61912,-5.74182 3.65434,-1.12971 7.41972,-2.28717 11.24469,-2.28715 l 11.25177,5e-5 11.25177,5e-5 c 3.82728,2e-5 7.59548,1.15584 11.25177,2.28705 4.7164,1.4592 9.23429,3.54231 13.64427,5.76173 4.71679,2.37383 13.64427,8.04873 13.64427,8.04873 l 191.01975,112.68223 c 3.22469,1.91849 7.42191,4.40332 10.25541,7.3041 2.52614,2.72143 5.22553,6.00697 5.4363,9.82036 l 0,192.84045 c 0,11.59648 -10.16327,21.74531 -22.50001,21.7444 l -197.99999,-0.002 -13.38985,0.0376 c -12.17586,0 -22.04638,-9.60404 -22.05,-21.77994 z"
       id="path4722-7"
       inkscape:connector-curvature="0"
       sodipodi:nodetypes="ccccccccccccccccssccaascsaaccccccccc" />
  </g>
</svg>
